<?xml version="1.0" encoding="UTF-8"?>
<svg xmlns="http://www.w3.org/2000/svg" viewBox="0 0 431.79 102.49">
  <defs>
    
  </defs>
  <g id="Layer_1" data-name="Layer 1">
    <g>
      <path class="cls-2" d="M136.44,77.96c-2.59-2.89-5.08-4.28-8.21-4.28-5.62,0-9.36,4.28-9.36,10.3,0,5.47,3.68,9.9,9.36,9.9,3.13,0,5.62-1.39,8.21-4.28v10.6c-3.08,1.49-6.02,2.24-9.21,2.24-10.5,0-18.06-7.91-18.06-18.66s7.56-18.66,18.06-18.66c3.18,0,6.12.75,9.21,2.24v10.6Z"></path>
      <path class="cls-2" d="M176.91,97.02c-3.63,3.53-8.51,5.47-13.49,5.47-4.33,0-8.66-1.54-12.09-4.28-4.48-3.58-6.92-8.66-6.92-14.38,0-5.08,1.94-9.65,5.57-13.19,3.58-3.48,8.46-5.47,13.44-5.47s9.9,1.99,13.49,5.47c3.63,3.53,5.52,8.16,5.52,13.19s-1.94,9.7-5.52,13.19ZM172.72,83.83c0-5.77-3.88-10.45-9.31-10.45s-9.3,4.63-9.3,10.45,3.63,10.45,9.3,10.45,9.31-4.63,9.31-10.45Z"></path>
      <path class="cls-2" d="M192.49,65.97h9.36l13.44,18.31c.35.45,1.49,2.54,3.23,6.27-.35-2.79-.55-5.13-.55-7.02v-17.57h9.31v35.58h-9.31l-13.44-18.36c-.35-.45-1.49-2.49-3.23-6.22.35,2.79.55,5.13.55,7.02v17.57h-9.36v-35.58Z"></path>
      <path class="cls-2" d="M264.65,77.96c-2.59-2.89-5.08-4.28-8.21-4.28-5.62,0-9.36,4.28-9.36,10.3,0,5.47,3.68,9.9,9.36,9.9,3.13,0,5.62-1.39,8.21-4.28v10.6c-3.08,1.49-6.02,2.24-9.21,2.24-10.5,0-18.06-7.91-18.06-18.66s7.56-18.66,18.06-18.66c3.18,0,6.12.75,9.21,2.24v10.6Z"></path>
      <path class="cls-2" d="M274.36,65.97h9.8v35.58h-9.8v-35.58Z"></path>
      <path class="cls-2" d="M295.96,65.97h21.8v7.81h-12.34v6.17h11.64v7.61h-11.64v6.02h12.34v7.96h-21.8v-35.58Z"></path>
      <path class="cls-2" d="M328.17,65.97h10.75c4.93,0,8.71.05,11.74,2.39,2.59,1.99,3.98,5.03,3.98,8.71,0,5.52-2.79,9.06-7.96,10.15l9.7,14.33h-10.95l-8.16-13.93v13.93h-9.11v-35.58ZM339.07,82.79c4.08,0,6.02-1.29,6.02-4.43,0-3.73-1.84-4.93-5.87-4.93h-1.94v9.36h1.79Z"></path>
      <path class="cls-2" d="M380.97,81h19.06c.05.75.05,1.44.05,2.14,0,12.29-6.97,19.26-18.51,19.26-5.67,0-10.1-1.64-13.68-5.27-3.38-3.43-5.32-8.31-5.32-13.34,0-10.8,8.06-18.61,19.01-18.61,6.92,0,12.34,2.79,16.02,8.21l-8.41,4.03c-1.99-2.74-4.48-4.08-7.61-4.08-5.67,0-9.35,3.98-9.35,10.85s3.63,10.9,9.35,10.9c5.03,0,8.56-2.79,9.06-6.62h-9.65v-7.46Z"></path>
      <path class="cls-2" d="M409.99,65.97h21.8v7.81h-12.34v6.17h11.64v7.61h-11.64v6.02h12.34v7.96h-21.8v-35.58Z"></path>
      <path class="cls-3" d="M25.28,60.55c0-6.7,3.21-12.62,8.08-16.4h0c1.41-1.1,3.45-.84,4.55.58h0c1.1,1.42.84,3.45-.58,4.55h0c-3.39,2.65-5.57,6.68-5.58,11.28h0c.02,7.9,6.42,14.3,14.33,14.32h0c7.91-.02,14.31-6.42,14.33-14.32h0c0-4.6-2.18-8.63-5.58-11.27h0c-1.41-1.1-1.67-3.14-.58-4.55h0c1.1-1.41,3.14-1.68,4.55-.58h0c4.88,3.78,8.09,9.7,8.08,16.4h0c0,11.49-9.31,20.81-20.81,20.81h0c-11.5,0-20.8-9.31-20.81-20.81h0Z"></path>
      <path class="cls-2" d="M90.74,95.59V28.89h-.02s-9.04-5.81-9.04-5.81v.04L45.38,0,9.05,23.12v-.05L0,28.88h0v73.46h.01v.04h90.77v-6.78h-.04ZM81.69,95.59H9.05v-62.57L45.36,9.9l36.33,23.12v62.57Z"></path>
      <path class="cls-2" d="M44.16,57.62v-19.09c0-1.07.86-1.93,1.93-1.93h0c1.06,0,1.93.86,1.93,1.93h0v19.09c0,1.07-.86,1.93-1.93,1.93h0c-1.07,0-1.93-.86-1.93-1.93h0Z"></path>
    </g>
  </g>
  <g id="Layer_2" data-name="Layer 2">
    <g>
      <path class="cls-1" d="M139.97,29.66l-10.45,25.75h-2.55l-10.4-25.75v25.75h-5.97V21.4h8.41l9.23,22.9,9.28-22.9h8.41v34.01h-5.97v-25.75Z"></path>
      <path class="cls-1" d="M185.37,20.84c10.2,0,17.39,7.45,17.39,17.59s-7.19,17.59-17.39,17.59-17.39-7.45-17.39-17.59,7.19-17.59,17.39-17.59ZM185.37,26.14c-6.88,0-11.27,5.25-11.27,12.29s4.39,12.29,11.27,12.29,11.27-5.3,11.27-12.29-4.44-12.29-11.27-12.29Z"></path>
      <path class="cls-1" d="M220.25,21.4h6.78l10.3,27.54,10.3-27.54h6.78l-13.36,34.01h-7.44l-13.36-34.01Z"></path>
      <path class="cls-1" d="M274.46,21.4h23.3v5.25h-17.34v8.82h16.98v5.25h-16.98v9.43h17.34v5.25h-23.3V21.4Z"></path>
    </g>
  </g>
</svg>